<svg data-v-fde0c5aa="" xmlns="http://www.w3.org/2000/svg" viewBox="0 0 242 50" class="iconLeft">
<!---->
<defs data-v-fde0c5aa="">
<!---->
</defs>
<rect data-v-fde0c5aa="" fill="none" x="0" y="0" width="242px" height="50px" class="logo-background-square"></rect>
<defs data-v-fde0c5aa="">
  <!---->
</defs>
<g data-v-fde0c5aa="" id="3fb18078-9554-4c6e-8aa9-94c6984fb463" fill="#FFFFFF" transform="matrix(2.485948778347064,0,0,2.485948778347064,48,16)">
  <path d="M3.37 10.50L3.01 8.18L1.25 8.18L0.88 10.50L-0.11 10.50L1.46 0.70L2.80 0.70L4.37 10.50L3.37 10.50ZM1.41 7.20L2.86 7.20L2.13 2.67L1.41 7.20ZM10.75 0.70L10.75 1.68L8.20 1.68L8.20 4.61L10.25 4.61L10.25 5.59L8.20 5.59L8.20 10.50L7.22 10.50L7.22 0.70L10.75 0.70ZM12.64 0.70L12.64 10.50L11.66 10.50L11.66 0.70L12.64 0.70ZM17.32 2.86L16.34 2.86L16.34 1.81L16.34 1.81Q16.34 1.67 16.20 1.67L16.20 1.67L14.67 1.67L14.67 1.67Q14.53 1.67 14.53 1.81L14.53 1.81L14.53 4.47L14.53 4.47Q14.53 4.56 14.62 4.59L14.62 4.59L16.20 4.59L16.20 4.59Q16.67 4.59 17.00 4.92L17.00 4.92L17.00 4.92Q17.32 5.25 17.32 5.71L17.32 5.71L17.32 9.39L17.32 9.39Q17.32 9.81 17.05 10.12L17.05 10.12L17.05 10.12Q16.79 10.43 16.38 10.50L16.38 10.50L14.49 10.50L14.49 10.50Q14.08 10.43 13.82 10.12L13.82 10.12L13.82 10.12Q13.55 9.81 13.55 9.39L13.55 9.39L13.55 8.34L14.53 8.34L14.53 9.39L14.53 9.39Q14.53 9.53 14.67 9.53L14.67 9.53L16.20 9.53L16.20 9.53Q16.34 9.53 16.34 9.39L16.34 9.39L16.34 5.71L16.34 5.71Q16.34 5.61 16.25 5.59L16.25 5.59L14.67 5.59L14.67 5.59Q14.21 5.59 13.88 5.26L13.88 5.26L13.88 5.26Q13.55 4.93 13.55 4.47L13.55 4.47L13.55 1.81L13.55 1.81Q13.55 1.39 13.82 1.08L13.82 1.08L13.82 1.08Q14.08 0.77 14.49 0.70L14.49 0.70L16.38 0.70L16.38 0.70Q16.79 0.77 17.05 1.08L17.05 1.08L17.05 1.08Q17.32 1.39 17.32 1.81L17.32 1.81L17.32 2.86ZM21.15 0.70L22.13 0.70L22.13 10.50L21.15 10.50L21.15 5.60L19.21 5.60L19.21 10.50L18.23 10.50L18.23 4.62L19.21 4.62L18.23 1.68L18.23 0.70L19.21 0.70L19.21 4.62L21.15 4.62L21.15 0.70ZM24.02 0.70L24.02 10.50L23.04 10.50L23.04 0.70L24.02 0.70ZM27.87 0.70L28.85 0.70L28.85 10.50L27.87 10.50L27.87 10.50L27.85 10.50L25.91 4.03L25.91 10.50L24.93 10.50L24.93 0.70L25.91 0.70L25.91 0.71L27.87 7.18L27.87 0.70ZM33.67 4.61L33.67 5.59L33.67 9.39L33.67 9.39Q33.67 9.81 33.40 10.12L33.40 10.12L33.40 10.12Q33.14 10.43 32.73 10.50L32.73 10.50L30.70 10.50L30.70 10.50Q30.30 10.43 30.03 10.12L30.03 10.12L30.03 10.12Q29.76 9.81 29.76 9.39L29.76 9.39L29.76 1.81L29.76 1.81Q29.76 1.39 30.03 1.08L30.03 1.08L30.03 1.08Q30.30 0.77 30.70 0.70L30.70 0.70L32.73 0.70L32.73 0.70Q33.14 0.77 33.40 1.08L33.40 1.08L33.40 1.08Q33.67 1.39 33.67 1.81L33.67 1.81L33.67 2.83L32.69 2.83L32.69 1.81L32.69 1.81Q32.69 1.67 32.55 1.67L32.55 1.67L30.88 1.67L30.88 1.67Q30.74 1.67 30.74 1.81L30.74 1.81L30.74 9.39L30.74 9.39Q30.74 9.53 30.88 9.53L30.88 9.53L32.55 9.53L32.55 9.53Q32.69 9.53 32.69 9.39L32.69 9.39L32.69 5.59L31.53 5.59L31.53 4.61L33.67 4.61ZM40.26 10.50L39.90 8.18L38.14 8.18L37.77 10.50L36.78 10.50L38.35 0.70L39.69 0.70L41.26 10.50L40.26 10.50ZM38.30 7.20L39.75 7.20L39.02 2.67L38.30 7.20ZM41.80 0.70L44.59 0.70L44.59 0.70Q45.05 0.70 45.38 1.04L45.38 1.04L45.38 1.04Q45.71 1.37 45.71 1.83L45.71 1.83L45.71 9.39L45.71 9.39Q45.71 9.84 45.38 10.17L45.38 10.17L45.38 10.17Q45.05 10.50 44.59 10.50L44.59 10.50L41.80 10.50L41.80 4.62L42.78 4.62L41.80 1.68L41.80 0.70ZM44.73 9.39L44.73 1.83L44.73 1.83Q44.73 1.69 44.59 1.69L44.59 1.69L42.78 1.69L42.78 9.52L44.59 9.52L44.59 9.52Q44.73 9.52 44.73 9.39L44.73 9.39ZM46.62 0.70L49.41 0.70L49.41 0.70Q49.87 0.70 50.20 1.04L50.20 1.04L50.20 1.04Q50.53 1.37 50.53 1.83L50.53 1.83L50.53 9.39L50.53 9.39Q50.53 9.84 50.20 10.17L50.20 10.17L50.20 10.17Q49.87 10.50 49.41 10.50L49.41 10.50L46.62 10.50L46.62 4.62L47.60 4.62L46.62 1.68L46.62 0.70ZM49.55 9.39L49.55 1.83L49.55 1.83Q49.55 1.69 49.41 1.69L49.41 1.69L47.60 1.69L47.60 9.52L49.41 9.52L49.41 9.52Q49.55 9.52 49.55 9.39L49.55 9.39ZM52.42 0.70L52.42 10.50L51.44 10.50L51.44 0.70L52.42 0.70ZM56.25 8.34L57.23 8.34L57.23 9.39L57.23 9.39Q57.23 9.81 56.97 10.12L56.97 10.12L56.97 10.12Q56.71 10.43 56.31 10.50L56.31 10.50L54.26 10.50L54.26 10.50Q53.86 10.43 53.59 10.12L53.59 10.12L53.59 10.12Q53.33 9.81 53.33 9.39L53.33 9.39L53.33 1.81L53.33 1.81Q53.33 1.39 53.59 1.08L53.59 1.08L53.59 1.08Q53.86 0.77 54.26 0.70L54.26 0.70L56.31 0.70L56.31 0.70Q56.71 0.77 56.97 1.08L56.97 1.08L56.97 1.08Q57.23 1.39 57.23 1.81L57.23 1.81L57.23 2.86L56.25 2.86L56.25 1.81L56.25 1.81Q56.25 1.67 56.13 1.67L56.13 1.67L54.45 1.67L54.45 1.67Q54.31 1.67 54.31 1.81L54.31 1.81L54.31 9.39L54.31 9.39Q54.31 9.53 54.45 9.53L54.45 9.53L56.13 9.53L56.13 9.53Q56.25 9.53 56.25 9.39L56.25 9.39L56.25 8.34ZM61.87 0.70L61.87 1.68L60.49 1.68L60.49 10.50L59.51 10.50L59.51 1.68L58.14 1.68L58.14 0.70L61.87 0.70ZM63.76 0.70L63.76 10.50L62.78 10.50L62.78 0.70L63.76 0.70ZM65.60 0.70L67.66 0.70L67.66 0.70Q68.07 0.77 68.33 1.08L68.33 1.08L68.33 1.08Q68.60 1.39 68.60 1.81L68.60 1.81L68.60 9.39L68.60 9.39Q68.60 9.81 68.33 10.12L68.33 10.12L68.33 10.12Q68.07 10.43 67.66 10.50L67.66 10.50L65.60 10.50L65.60 10.50Q65.20 10.43 64.93 10.12L64.93 10.12L64.93 10.12Q64.67 9.81 64.67 9.39L64.67 9.39L64.67 1.81L64.67 1.81Q64.67 1.39 64.93 1.08L64.93 1.08L64.93 1.08Q65.20 0.77 65.60 0.70L65.60 0.70ZM67.62 9.39L67.62 1.81L67.62 1.81Q67.62 1.67 67.49 1.67L67.49 1.67L65.79 1.67L65.79 1.67Q65.65 1.67 65.65 1.81L65.65 1.81L65.65 9.39L65.65 9.39Q65.65 9.53 65.79 9.53L65.79 9.53L67.49 9.53L67.49 9.53Q67.62 9.53 67.62 9.39L67.62 9.39ZM72.45 0.70L73.43 0.70L73.43 10.50L72.45 10.50L72.45 10.50L72.42 10.50L70.49 4.03L70.49 10.50L69.51 10.50L69.51 0.70L70.49 0.70L70.49 0.71L72.45 7.18L72.45 0.70Z"></path>
</g>
<defs data-v-fde0c5aa=""><!----></defs>
<g data-v-fde0c5aa="" id="842ac298-6bbd-4f82-a27c-75be7d7ef0d2" stroke="none" fill="#00A3DD" transform="matrix(0.4073712241603567,0,0,0.4073712241603567,4,4)">
<switch>
	<g>
		<path d="M33.125 27.978a6.403 6.403 0 1 0-12.806 0 6.403 6.403 0 1 0 12.806 0zM22.799 39.702l10.184 20.455-9.448 28.703a4.763 4.763 0 0 0 3.365 5.83 4.762 4.762 0 0 0 5.83-3.366l8.486-25.231 8.342 25.17a4.76 4.76 0 0 0 9.193-2.465l-9.215-28.1c.446-5.252 1.464-13.488 3.142-21.883l1-1.008c1.027-1.252 1.084-3.045.143-4.271 2.783-11.855 6.934-22.828 12.701-24.79 2.967-1.009 6.43.642 10.287 4.909a1.649 1.649 0 1 0 2.447-2.213c-4.822-5.336-9.465-7.295-13.797-5.82-6.072 2.064-11.023 11.03-14.736 26.664a3.386 3.386 0 0 0-2.148 1.208l-5.691 5.726-7.012-3.938-.002.004a3.739 3.739 0 0 0-1.814-.467c-.094 0-.188.008-.279.014l-8.791 1.082a2.904 2.904 0 0 0-2.187 3.787zm18.605 6.386l.107.06a3.375 3.375 0 0 0 1.961.603c.992-.011 1.879-.479 2.49-1.164l2.598-2.619a235.255 235.255 0 0 0-1.787 12.465l-5.369-9.345z"></path></g></switch></g><!----></svg>
